<svg width="16" height="12" viewBox="0 0 16 12" fill="none" xmlns="http://www.w3.org/2000/svg">
<path d="M9.52578 11.1C9.37578 10.95 9.30078 10.7707 9.30078 10.562C9.30078 10.354 9.37578 10.175 9.52578 10.025L12.8258 6.74999H1.05078C0.834115 6.74999 0.655114 6.67899 0.513781 6.53699C0.371781 6.39566 0.300781 6.21666 0.300781 5.99999C0.300781 5.78333 0.371781 5.60399 0.513781 5.46199C0.655114 5.32066 0.834115 5.24999 1.05078 5.24999H12.8258L9.50078 1.94999C9.36745 1.79999 9.30078 1.62499 9.30078 1.42499C9.30078 1.22499 9.37578 1.04999 9.52578 0.899994C9.67578 0.733327 9.85078 0.649994 10.0508 0.649994C10.2508 0.649994 10.4341 0.733327 10.6008 0.899994L15.0758 5.37499C15.1591 5.45833 15.2218 5.55399 15.2638 5.66199C15.3051 5.77066 15.3258 5.88333 15.3258 5.99999C15.3258 6.11666 15.3051 6.22899 15.2638 6.33699C15.2218 6.44566 15.1591 6.54166 15.0758 6.62499L10.5758 11.125C10.4258 11.275 10.2508 11.35 10.0508 11.35C9.85078 11.35 9.67578 11.2667 9.52578 11.1Z" fill="black"/>
</svg>
